<svg width="20" height="20" viewBox="0 0 20 20" fill="none" xmlns="http://www.w3.org/2000/svg">
<g clip-path="url(#clip0_352_12562)">
<path fill-rule="evenodd" clip-rule="evenodd" d="M5.00176 0H14.0192L16.0335 2.01445V3.82145H5.00176V0ZM20 14.125C19.9998 14.2907 19.9339 14.4496 19.8167 14.5667C19.6996 14.6839 19.5407 14.7498 19.375 14.75H17.4621V11.8991C17.4621 11.7096 17.3868 11.5279 17.2529 11.394C17.1189 11.26 16.9372 11.1847 16.7478 11.1847H4.28746C4.09803 11.1848 3.91638 11.2601 3.78243 11.394C3.64848 11.528 3.5732 11.7096 3.57312 11.8991V14.75H0.625C0.459287 14.7498 0.300406 14.6839 0.18323 14.5668C0.066053 14.4496 0.000155138 14.2907 0 14.125L0 5.875C0.000206734 5.7093 0.0661211 5.55045 0.183287 5.43329C0.300452 5.31612 0.459303 5.25021 0.625 5.25H19.375C19.5407 5.25024 19.6995 5.31616 19.8167 5.43332C19.9338 5.55048 19.9998 5.70931 20 5.875V14.125ZM16.0335 20V12.6133H5.00176V20H16.0335Z" fill="url(#paint0_linear_352_12562)"/>
</g>
<defs>
<linearGradient id="paint0_linear_352_12562" x1="0" y1="10" x2="20" y2="10" gradientUnits="userSpaceOnUse">
<stop stop-color="#3170B4"/>
<stop offset="1" stop-color="#5CCCC2"/>
</linearGradient>
<clipPath id="clip0_352_12562">
<rect width="20" height="20" fill="white"/>
</clipPath>
</defs>
</svg>
