<svg width="39" height="36" viewBox="0 0 39 36" fill="none" xmlns="http://www.w3.org/2000/svg">
<path d="M0.931 -0.000137329L15.9757 -0.000137329V18.4448C15.9757 23.5239 14.5112 27.5336 11.5821 30.4741C8.65306 33.5038 4.79203 35.0186 -0.000976562 35.0186V27.1327C4.96955 26.4198 7.45481 23.9694 7.45481 19.7814V16.9746H0.931L0.931 -0.000137329ZM23.5647 -0.000137329H38.6094L38.6094 18.4448C38.6094 23.5239 37.1448 27.5336 34.2158 30.4741C31.2867 33.5038 27.4257 35.0186 22.6327 35.0186V27.1327C27.6032 26.4198 30.0885 23.9694 30.0885 19.7814V16.9746L23.5647 16.9746L23.5647 -0.000137329Z" fill="url(#paint0_linear_352_14430)"/>
<defs>
<linearGradient id="paint0_linear_352_14430" x1="38.6094" y1="17.5092" x2="-0.000976562" y2="17.5092" gradientUnits="userSpaceOnUse">
<stop stop-color="#3170B4"/>
<stop offset="1" stop-color="#5CCCC2"/>
</linearGradient>
</defs>
</svg>
